<?xml version="1.0" encoding="UTF-8" standalone="no"?>
<svg
   xmlns:dc="http://purl.org/dc/elements/1.1/"
   xmlns:cc="http://creativecommons.org/ns#"
   xmlns:rdf="http://www.w3.org/1999/02/22-rdf-syntax-ns#"
   xmlns:svg="http://www.w3.org/2000/svg"
   xmlns="http://www.w3.org/2000/svg"
   xmlns:sodipodi="http://sodipodi.sourceforge.net/DTD/sodipodi-0.dtd"
   xmlns:inkscape="http://www.inkscape.org/namespaces/inkscape"
   width="92.619308mm"
   height="28.200291mm"
   viewBox="0 0 92.619308 28.20029"
   version="1.1"
   id="svg1457"
   inkscape:version="1.0.2-2 (e86c870879, 2021-01-15)"
   sodipodi:docname="themis.svg">
  <defs
     id="defs1451">
    <clipPath
       clipPathUnits="userSpaceOnUse"
       id="clipPath2078">
      <g
         inkscape:label="Clip"
         id="use2080"
         style="fill:#000000;fill-opacity:1">
        <ellipse
           style="opacity:0.4;fill:#000000;fill-opacity:1;stroke:#000000;stroke-width:0.3;stroke-opacity:1"
           id="ellipse2141"
           cx="44.034225"
           cy="56.979908"
           rx="12.662203"
           ry="12.000744" />
      </g>
    </clipPath>
  </defs>
  <sodipodi:namedview
     id="base"
     pagecolor="#ffffff"
     bordercolor="#666666"
     borderopacity="1.0"
     inkscape:pageopacity="0.0"
     inkscape:pageshadow="2"
     inkscape:zoom="2.8284271"
     inkscape:cx="187.04104"
     inkscape:cy="41.775078"
     inkscape:document-units="mm"
     inkscape:current-layer="layer2"
     inkscape:document-rotation="0"
     showgrid="true"
     width="147mm"
     inkscape:window-width="1920"
     inkscape:window-height="986"
     inkscape:window-x="-11"
     inkscape:window-y="-11"
     inkscape:window-maximized="1"
     fit-margin-top="0"
     fit-margin-left="0"
     fit-margin-right="0"
     fit-margin-bottom="0">
    <inkscape:grid
       type="xygrid"
       id="grid2346"
       originx="-5.5733742"
       originy="-12.237002" />
  </sodipodi:namedview>
  <metadata
     id="metadata1454">
    <rdf:RDF>
      <cc:Work
         rdf:about="">
        <dc:format>image/svg+xml</dc:format>
        <dc:type
           rdf:resource="http://purl.org/dc/dcmitype/StillImage" />
        <dc:title></dc:title>
      </cc:Work>
    </rdf:RDF>
  </metadata>
  <g
     inkscape:groupmode="layer"
     id="layer2"
     inkscape:label="Calque 2">
    <rect
       style="fill:#ffffff;fill-opacity:1;stroke:none;stroke-width:0.211858;stroke-miterlimit:4;stroke-dasharray:none;stroke-opacity:1"
       id="rect2462"
       width="92.604164"
       height="22.489582"
       x="-0.28170753"
       y="-0.33075136" />
  </g>
  <g
     inkscape:label="Calque 1"
     inkscape:groupmode="layer"
     id="layer1"
     transform="translate(-5.5733742,-12.237003)">
    <path
       style="opacity:0.4;fill:#000000;fill-opacity:1;stroke:#000000;stroke-width:0.0265165;stroke-opacity:1"
       d="m 49.448534,31.394858 c 0,-0.015 0.292465,-0.176694 0.31796,-0.175797 0.03244,0.0011 -0.05998,0.06677 -0.182711,0.129747 -0.111363,0.05714 -0.135249,0.06527 -0.135249,0.04605 z"
       id="path2112" />
    <path
       style="opacity:0.4;fill:#000000;fill-opacity:1;stroke:#000000;stroke-width:0.10022;stroke-opacity:1"
       d=""
       id="path2114"
       transform="scale(0.26458333)" />
    <path
       style="opacity:0.4;fill:#000000;fill-opacity:1;stroke:#000000;stroke-width:0.0501099;stroke-opacity:1"
       d=""
       id="path2122"
       transform="scale(0.26458333)" />
    <path
       style="opacity:0.4;fill:#000000;fill-opacity:1;stroke:#000000;stroke-width:0.0501099;stroke-opacity:1"
       d=""
       id="path2124"
       transform="scale(0.26458333)" />
    <path
       style="opacity:0.4;fill:#ffffff;fill-opacity:1;stroke:#000000;stroke-width:0.141732;stroke-opacity:1"
       d=""
       id="path2231"
       transform="scale(0.26458333)" />
    <path
       style="opacity:0.4;fill:#ffffff;fill-opacity:1;stroke:#000000;stroke-width:0.141732;stroke-opacity:1"
       d=""
       id="path2233"
       transform="scale(0.26458333)" />
    <path
       style="opacity:0.4;fill:#ffffff;fill-opacity:1;stroke:#000000;stroke-width:0.141732;stroke-opacity:1"
       d=""
       id="path2235"
       transform="scale(0.26458333)" />
    <path
       style="opacity:0.4;fill:#ffffff;fill-opacity:1;stroke:#000000;stroke-width:0.141732;stroke-opacity:1"
       d=""
       id="path2237"
       transform="scale(0.26458333)" />
    <path
       style="opacity:0.4;fill:#ffffff;fill-opacity:1;stroke:#000000;stroke-width:0.141732;stroke-opacity:1"
       d=""
       id="path2239"
       transform="scale(0.26458333)" />
    <ellipse
       style="opacity:1;fill:#000000;fill-opacity:1;stroke:none;stroke-width:0.284196;stroke-opacity:1"
       id="path2348"
       cx="41.910763"
       cy="23.770922"
       rx="9.2352467"
       ry="9.5659742"
       mask="none" />
    <path
       style="display:inline;opacity:1;fill:#ffffff;fill-opacity:1;stroke-width:0.0630417"
       d="m 31.669354,14.080556 c 6.840472,0 13.680944,0 20.521415,0 V 33.495631 H 31.669354 Z m 9.650443,17.503497 c 0.152865,-0.219884 0.200271,-0.700826 0.07322,-0.744175 -0.07875,-0.02687 -0.110308,-0.207044 -0.03625,-0.207044 0.02246,0 0.132715,0.07179 0.245065,0.159472 0.270544,0.211254 0.293891,0.202078 0.182261,-0.07156 -0.128098,-0.314021 -0.121238,-0.343027 0.08194,-0.343027 0.190792,0 0.724533,-0.328081 0.781654,-0.480401 0.02858,-0.07624 -0.03766,-0.09367 -0.355987,-0.09367 -0.229306,0 -0.438581,-0.03549 -0.505774,-0.0858 -0.104932,-0.07856 -0.09495,-0.08908 0.118255,-0.124489 0.226579,-0.03765 0.40872,-0.141624 0.40872,-0.233318 0,-0.0249 -0.149314,-0.0326 -0.331811,-0.01706 -0.677722,0.05755 -1.25158,-0.482402 -1.849384,-1.739924 -0.44214,-0.930151 -0.530897,-1.292124 -0.648809,-2.647164 -0.05553,-0.638038 -0.133559,-1.159508 -0.198139,-1.324266 -0.0586,-0.149495 -0.08882,-0.289899 -0.06719,-0.312087 0.107965,-0.110545 0.338211,0.316926 0.444862,0.825669 0.105709,0.504511 0.356343,-0.363741 0.353261,-1.224168 -0.0016,-0.432308 -0.03447,-0.709023 -0.106413,-0.893094 -0.114861,-0.293896 -0.0859,-0.391189 0.07575,-0.254576 0.231436,0.195638 0.399949,0.85254 0.521774,2.034331 0.01085,0.10596 0.266988,-0.327872 0.442018,-0.748911 0.181666,-0.437055 0.205012,-0.55834 0.199797,-1.037127 -0.0062,-0.561944 -0.07672,-0.944764 -0.249687,-1.356122 -0.165084,-0.392451 -0.0303,-0.360961 0.376841,0.08815 0.351367,0.387525 0.771935,1.080363 0.881197,1.451374 0.08487,0.288216 -0.08504,0.07511 -0.376367,-0.472143 -0.157726,-0.296336 -0.312023,-0.554678 -0.342715,-0.574127 -0.08365,-0.05293 -0.116652,0.18125 -0.135802,0.963072 -0.01619,0.659898 -0.03092,0.73305 -0.225986,1.116275 -0.114808,0.225568 -0.278839,0.505274 -0.364517,0.621593 -0.08568,0.116327 -0.145989,0.220687 -0.133908,0.231884 0.01207,0.01119 0.218168,-0.06158 0.45802,-0.161782 0.23985,-0.100201 0.468683,-0.18301 0.5085,-0.18406 0.148003,-0.0038 0.387745,-0.392703 0.462521,-0.750621 0.04228,-0.202118 0.09959,-0.410554 0.127389,-0.463195 0.07343,-0.139184 0.06741,0.594161 -0.0065,0.793189 -0.107463,0.289348 0.07746,0.190288 0.519049,-0.278024 0.248267,-0.263335 0.485156,-0.591728 0.586595,-0.81329 0.154294,-0.337214 0.17005,-0.439563 0.17005,-1.10517 0,-0.687858 -0.01206,-0.759505 -0.192926,-1.150305 -0.106103,-0.229232 -0.295312,-0.562745 -0.420569,-0.741169 -0.272798,-0.388665 -0.281093,-0.436025 -0.05631,-0.318738 0.09423,0.04917 0.383479,0.109243 0.642768,0.13359 0.899324,0.08428 1.833978,0.532554 2.547951,1.222095 0.509688,0.492241 0.620133,0.730115 0.929902,2.002734 0.123838,0.508702 0.253124,0.918716 0.287491,0.911138 0.207499,-0.04588 0.142314,-1.870824 -0.09516,-2.665283 -0.337574,-1.129316 -1.030703,-1.940922 -2.098604,-2.457511 -1.387893,-0.671345 -2.870107,-0.473556 -4.457335,0.59481 -1.283943,0.864225 -1.961798,1.981015 -2.258046,3.720261 -0.239615,1.406557 0,3.036782 0.677251,4.612773 0.364993,0.849093 0.833318,1.548844 1.592871,2.380265 0.344609,0.377254 0.626647,0.713984 0.626647,0.748284 0,0.2089 -1.112988,0.147056 -1.69341,-0.09413 -0.56135,-0.233231 -0.981686,-0.537689 -1.475457,-1.068618 -0.660185,-0.709859 -1.815526,-2.159693 -1.815526,-2.278224 0,-0.260974 0.140902,-0.332417 0.660305,-0.334732 0.274098,-0.0013 0.643356,0.01815 0.820759,0.04321 l 0.322447,0.04543 -0.08715,-0.308713 c -0.04793,-0.169783 -0.133784,-0.466612 -0.190672,-0.659567 -0.07906,-0.267793 -0.12265,-0.871749 -0.184274,-2.551483 -0.05385,-1.46885 -0.106672,-2.257946 -0.158914,-2.372934 -0.09538,-0.210161 -0.350771,-0.280636 -0.650348,-0.179395 -0.349941,0.11825 -0.825143,0.890492 -1.256393,2.042041 -0.177517,0.473995 -0.179176,0.490754 -0.174675,1.81793 0.004,1.174428 0.02135,1.402427 0.14161,1.849824 0.297328,1.10616 0.882618,2.070844 1.808004,2.980222 0.34141,0.335489 0.747286,0.699101 0.901935,0.808027 0.426138,0.300212 1.203074,0.678791 1.706928,0.831818 0.454226,0.137919 0.577233,0.245819 0.577233,0.505973 0,0.06993 -0.07339,0.186246 -0.163068,0.258448 -0.169928,0.136872 -0.16093,0.148815 0.168982,0.222157 0.119925,0.02668 0.198493,-0.0042 0.304673,-0.119975 0.121581,-0.132524 0.137231,-0.19934 0.10433,-0.445235 -0.04376,-0.326901 0.02638,-0.374055 0.185812,-0.124873 0.09714,0.151767 0.09768,0.188605 0.0072,0.478401 l -0.09807,0.313976 h 0.145764 c 0.0918,0 0.19648,-0.07296 0.28275,-0.19694 z m 1.695103,0.155088 c -0.04218,-0.01741 -0.12632,-0.01852 -0.186881,-0.0024 -0.06062,0.01614 -0.02609,0.03047 0.0767,0.03177 0.102794,0.0013 0.152398,-0.01193 0.110189,-0.02941 z m 0.464772,-0.0605 c -0.02069,-0.02119 -0.07444,-0.02347 -0.119443,-0.0049 -0.04971,0.02035 -0.03494,0.03548 0.03764,0.03854 0.06567,0.0028 0.102484,-0.01228 0.0818,-0.0335 z m 0.311547,-0.06378 c -0.02069,-0.02119 -0.07444,-0.02347 -0.119443,-0.0049 -0.04971,0.02037 -0.03494,0.03548 0.03764,0.03854 0.06567,0.0028 0.102484,-0.01228 0.0818,-0.0335 z m 2.509073,-0.953439 c 0,-0.01762 -0.08411,0.01265 -0.18688,0.06707 -0.102812,0.05443 -0.186881,0.113282 -0.186881,0.130837 0,0.01762 0.08411,-0.01265 0.186881,-0.06707 0.102795,-0.05443 0.18688,-0.113297 0.18688,-0.130837 z m 0.436097,-0.256347 c 0,-0.01762 -0.05607,-0.0013 -0.124669,0.03638 -0.06853,0.03755 -0.124667,0.08264 -0.124667,0.100145 0,0.01762 0.05607,0.0013 0.124667,-0.03638 0.06853,-0.03755 0.124669,-0.08264 0.124669,-0.100163 z m -1.643036,-0.0578 c 1.13515,-0.165235 1.445903,-0.272005 1.776198,-0.610148 0.330861,-0.33869 0.799071,-1.264184 0.950637,-1.879028 0.243761,-0.988716 0.19103,-1.673712 -0.211055,-2.742825 -0.21449,-0.57029 -0.718963,-1.868225 -0.87444,-2.249691 -0.05726,-0.140486 -0.0657,-0.141824 -0.290216,-0.04581 -0.127148,0.05439 -0.238432,0.106217 -0.247081,0.115134 -0.0088,0.009 0.05993,0.173066 0.152521,0.364749 l 0.168392,0.348499 0.01884,-0.334902 c 0.03032,-0.539105 0.261541,-0.356751 0.261541,0.206285 0,0.355531 -0.09952,0.564076 -0.415476,0.870561 -0.275997,0.267711 -0.458139,0.374306 -0.639688,0.374306 -0.174554,0 -0.162118,-0.08775 0.02706,-0.191341 0.209989,-0.115097 0.197784,-0.146889 -0.09249,-0.239633 -0.336314,-0.107482 -0.355393,-0.103429 -0.401492,0.08466 -0.06093,0.248555 -0.188777,0.148815 -0.211055,-0.164608 -0.02238,-0.315198 0.120512,-0.761889 0.340579,-1.064958 0.08166,-0.112454 0.372576,-0.341972 0.646557,-0.510024 0.273984,-0.168058 0.514311,-0.358056 0.534218,-0.42218 0.01987,-0.06412 0.0021,-0.200602 -0.03937,-0.303242 -0.06219,-0.153712 -0.112292,-0.186669 -0.2837,-0.186669 -0.114514,0 -0.350416,0.05742 -0.52438,0.127553 -0.544407,0.219676 -0.738632,0.140523 -0.358238,-0.146044 0.219943,-0.165709 0.462285,-0.269436 0.778809,-0.333468 0.111379,-0.02254 0.202523,-0.07729 0.202523,-0.121666 0,-0.152482 -0.478518,-0.838554 -0.753211,-1.079807 -0.527579,-0.463428 -1.475303,-0.855784 -2.317863,-0.959591 l -0.298514,-0.03676 0.163534,0.219548 c 0.08995,0.120748 0.235111,0.42893 0.322569,0.684845 0.394618,1.154851 0.03854,2.500278 -0.855834,3.233836 -0.145524,0.11939 -0.639332,0.411059 -1.097233,0.648149 -1.385168,0.717196 -1.705496,1.011561 -1.705496,1.567305 0,0.188227 0.02804,0.342225 0.06231,0.342225 0.03426,0 0.06231,-0.05264 0.06231,-0.116948 0,-0.167728 0.05903,-0.20515 0.190672,-0.120984 0.09416,0.06021 0.140783,0.04753 0.258104,-0.07014 0.07873,-0.07898 0.225036,-0.209783 0.325173,-0.290613 l 0.181904,-0.14696 -0.105225,-0.269227 c -0.114186,-0.292171 -0.08665,-0.443111 0.05836,-0.319913 0.04835,0.04107 0.08792,0.109792 0.08792,0.152683 0,0.04291 0.05233,0.126471 0.11629,0.185743 0.09921,0.09191 0.160104,0.09767 0.414882,0.03926 0.666113,-0.152813 1.098177,-0.04496 1.483315,0.370224 0.236413,0.254912 0.135575,0.294989 -0.264736,0.105116 -0.180957,-0.08583 -0.33845,-0.156059 -0.350063,-0.156059 -0.01156,0 -0.006,0.09498 0.01241,0.211042 0.01839,0.11607 0.0034,0.322567 -0.03339,0.458867 -0.03676,0.136324 -0.05434,0.260596 -0.03906,0.276259 0.01535,0.01561 0.124788,-0.04731 0.243406,-0.139935 0.215559,-0.168315 0.410856,-0.220393 0.410856,-0.109538 0,0.03234 -0.118515,0.162663 -0.263319,0.289603 -0.539546,0.472863 -1.464921,0.599654 -2.141175,0.293391 -0.51336,-0.232476 -0.287726,-0.338228 0.34852,-0.163436 0.188423,0.05179 0.398767,0.09389 0.467262,0.0935 0.121341,-5.29e-4 0.121238,-0.0034 -0.0084,-0.110894 -0.07317,-0.06063 -0.207025,-0.23281 -0.297563,-0.382641 -0.183325,-0.303495 -0.151797,-0.307075 -0.673931,0.0764 -0.162002,0.118967 -0.329798,0.228348 -0.372933,0.243083 -0.160224,0.05469 0.328613,1.284483 0.775727,1.951516 0.158329,0.236178 0.208092,0.270489 0.342357,0.235969 0.142214,-0.03655 0.154176,-0.02479 0.126442,0.123936 -0.02569,0.137496 -0.01172,0.158136 0.08534,0.126601 0.08063,-0.02619 0.173133,0.0263 0.303131,0.172092 0.206909,0.231971 0.252534,0.143733 0.0939,-0.181779 -0.08651,-0.177543 -0.218284,-0.752951 -0.218284,-0.953188 0,-0.227295 0.114702,-0.03735 0.267464,0.442992 0.202758,0.637318 0.311071,0.814142 0.426969,0.697045 0.06227,-0.06291 0.0641,-0.123314 0.0083,-0.274698 -0.05776,-0.156613 -0.05488,-0.200605 0.01482,-0.22801 0.125613,-0.04934 0.203115,0.01849 0.343781,0.30063 0.06874,0.137956 0.166497,0.25083 0.217217,0.25083 0.06546,0 0.0922,0.07139 0.0922,0.24624 0,0.494088 0.07379,0.838118 0.179771,0.838369 0.05531,1.27e-4 0.310838,0.08525 0.567872,0.189151 0.538242,0.217612 0.62025,0.223128 1.472221,0.0991 z m 0.428154,-1.691648 c -0.02603,-0.04311 -0.01188,-0.100568 0.0314,-0.127995 0.11036,-0.06984 0.806063,-0.216011 0.843867,-0.177321 0.01707,0.01762 -0.0204,0.09708 -0.08339,0.176734 -0.134731,0.170333 -0.710314,0.263755 -0.79188,0.128582 z m -0.871239,-0.508659 c -0.06527,-0.108109 0.674878,-0.863214 1.00811,-1.028414 0.352314,-0.174662 0.72738,-0.147733 0.755346,0.05427 0.02854,0.205822 -0.262247,0.819391 -0.432541,0.912691 -0.207023,0.113408 -1.26991,0.162499 -1.330915,0.06145 z m -3.110682,-0.630301 c -0.05979,-0.09906 0.01765,-0.583456 0.09328,-0.583456 0.06746,0 0.06806,0.362349 7.94e-4,0.537956 -0.03354,0.08765 -0.06076,0.100822 -0.09414,0.04549 z m -1.386023,-0.873249 c -0.02029,-0.05414 -0.02341,-0.112234 -0.0069,-0.129075 0.0555,-0.05683 0.234638,0.04904 0.234638,0.138634 0,0.12069 -0.181782,0.113078 -0.227669,-0.0095 z m 5.114986,-0.120322 c -0.118358,-0.08921 -0.118477,-0.09591 -0.0057,-0.312169 0.143385,-0.274952 0.466669,-0.681048 0.542038,-0.681048 0.03097,0 0.103087,0.07305 0.160224,0.162372 0.08647,0.135147 0.09219,0.202372 0.03409,0.400955 -0.133662,0.456888 -0.448892,0.642337 -0.730671,0.429882 z m -5.323398,-1.094208 c 0,-0.05553 0.0333,-0.08963 0.07399,-0.07573 0.115533,0.03942 0.134734,0.176733 0.02466,0.176733 -0.05426,0 -0.09864,-0.04547 -0.09864,-0.100988 z m 7.359925,4.582035 c 0.07749,-0.101171 0.07529,-0.103446 -0.02352,-0.02408 -0.05996,0.04816 -0.109035,0.09839 -0.109035,0.111646 0,0.05251 0.05116,0.01871 0.132612,-0.08752 z m -7.305685,-0.255164 c -0.545119,-0.591997 -0.784498,-0.880578 -1.29167,-1.557078 -0.492977,-0.657543 -0.573677,-0.736111 -0.887833,-0.864145 -0.458491,-0.186838 -0.914138,-0.30897 -0.963673,-0.258239 -0.04797,0.04909 0.105225,0.278614 0.683294,1.0237 0.344964,0.444656 0.446405,0.540178 0.489657,0.461113 0.07163,-0.131056 0.168275,-0.06665 0.129286,0.08613 -0.0882,0.345299 1.337151,1.33401 1.939533,1.345403 0.102534,0.0021 0.08702,-0.03533 -0.09859,-0.236889 z m 7.64041,-0.01595 c 0.06203,-0.07019 0.09876,-0.127569 0.08161,-0.127569 -0.01707,0 -0.08191,0.05742 -0.143986,0.127569 -0.06203,0.07017 -0.09874,0.127553 -0.08161,0.127553 0.01707,0 0.0819,-0.05742 0.143987,-0.127553 z M 40.158424,29.404923 C 38.34652,27.403332 37.68053,25.272962 37.87081,22.087265 c 0.06536,-1.094295 0.05265,-1.199454 -0.201811,-1.670211 -0.14161,-0.262155 -0.108966,-0.326147 0.08982,-0.175692 0.09973,0.07549 0.246962,0.293267 0.327073,0.483926 l 0.145761,0.346689 0.04,-0.24283 c 0.02877,-0.17459 0.01569,-0.257143 -0.04673,-0.293811 -0.04771,-0.02805 -0.08675,-0.09839 -0.08675,-0.156282 0,-0.08189 0.01656,-0.08824 0.07477,-0.02873 0.137816,0.141163 0.235823,0.0789 0.526513,-0.334775 0.158914,-0.226242 0.327069,-0.426257 0.373525,-0.444505 0.123357,-0.04845 0.103206,-0.144872 -0.03813,-0.182716 -0.131543,-0.0352 -0.364516,-0.461449 -0.292584,-0.535122 0.02384,-0.02439 0.120047,0.01868 0.213662,0.09578 0.370562,0.304927 0.405757,0.304842 0.773829,-0.0021 0.59975,-0.500144 1.619263,-1.06671 2.280325,-1.267251 0.408601,-0.123976 0.203708,-0.184946 -0.625226,-0.186039 -0.552821,-7.94e-4 -0.728324,0.01855 -0.716476,0.07877 0.0086,0.04386 -0.194702,0.188434 -0.451737,0.32126 -1.316402,0.680394 -2.871102,1.652788 -3.172835,1.984457 -0.182261,0.200353 -0.124082,0.212518 0.159276,0.03326 0.221009,-0.139808 0.249688,-0.126341 0.147418,0.06929 -0.04195,0.08028 -0.04168,0.132651 7.94e-4,0.159601 0.03485,0.02204 0.124788,0.160153 0.199797,0.306864 0.128461,0.251206 0.138888,0.380368 0.179062,2.212271 0.03542,1.617377 0.06491,2.055371 0.174911,2.59692 0.227052,1.117672 0.692656,2.232298 1.299964,3.112024 0.28524,0.413205 1.170109,1.435206 1.242574,1.435206 0.01744,0 -0.130718,-0.179395 -0.329269,-0.398661 z m -1.995157,-9.329391 c -0.08596,-0.08798 -0.139128,-0.188478 -0.118099,-0.223255 0.06343,-0.105043 0.117649,-0.07215 0.265094,0.160776 0.163652,0.25866 0.0796,0.294402 -0.14699,0.06249 z m 0.41121,-0.509762 c 0,-0.05263 0.02804,-0.09568 0.06231,-0.09568 0.03426,0 0.06231,0.04308 0.06231,0.09568 0,0.05263 -0.02804,0.09568 -0.06231,0.09568 -0.03427,0 -0.06231,-0.04308 -0.06231,-0.09568 z m 9.657276,9.631873 c 0.186169,-0.192942 0.324345,-0.350814 0.307282,-0.350814 -0.01707,0 -0.183446,0.157877 -0.369615,0.350814 -0.186169,0.192942 -0.324345,0.350814 -0.307282,0.350814 0.01707,0 0.183446,-0.157877 0.369615,-0.350814 z m 0.529595,-0.605975 c 0.06203,-0.07017 0.09876,-0.127553 0.08163,-0.127553 -0.01707,0 -0.0819,0.05742 -0.143989,0.127553 -0.06201,0.07019 -0.09876,0.127569 -0.08161,0.127569 0.01707,0 0.0819,-0.05742 0.143989,-0.127569 z m 0.225986,-0.30299 c 0.07749,-0.101172 0.0753,-0.103447 -0.02352,-0.02408 -0.103778,0.08333 -0.13675,0.135734 -0.08551,0.135734 0.01294,0 0.062,-0.05023 0.109035,-0.111647 z m -10.97644,-1.360885 c -0.12703,-0.243123 -0.632336,-0.358391 -1.399032,-0.319198 -0.306573,0.01561 -0.05233,0.111392 0.405757,0.152778 0.223141,0.02016 0.531606,0.09376 0.685305,0.163507 0.35978,0.163269 0.391893,0.163563 0.30797,0.0029 z m 2.282586,-2.619205 c 0.0703,-0.116454 -0.18285,0.04828 -0.317825,0.206835 l -0.12396,0.145531 0.200626,-0.142594 c 0.110326,-0.07843 0.218876,-0.17281 0.241154,-0.209783 z m -4.640413,-3.214841 c 0.06682,-0.141952 0.344967,-0.525603 0.618001,-0.85258 0.273031,-0.326986 0.49653,-0.616765 0.49653,-0.643975 0,-0.02721 0.06308,-0.06724 0.140197,-0.08896 0.07709,-0.02172 0.223735,-0.110125 0.325885,-0.196477 l 0.185698,-0.156943 -0.244002,-0.255796 c -0.288083,-0.302062 -0.258339,-0.406345 0.04769,-0.167304 0.207737,0.162242 0.215558,0.163433 0.247435,0.03834 0.01815,-0.07101 0.08089,-0.129167 0.139473,-0.129167 0.09923,0 0.09954,0.01082 0.0045,0.159475 -0.05855,0.09149 -0.07351,0.159472 -0.03507,0.159472 0.03683,0 0.09674,-0.08739 0.133078,-0.194249 0.06824,-0.200393 0.222668,-0.228346 0.188423,-0.03406 -0.01603,0.09084 0.0016,0.09771 0.105568,0.04087 0.06865,-0.03763 0.145765,-0.104105 0.171358,-0.147767 0.03127,-0.05329 0.01188,-0.05059 -0.05883,0.0081 -0.08969,0.07448 -0.105413,0.07401 -0.105413,-0.0031 -2.4e-5,-0.09585 0.118271,-0.24384 0.194937,-0.24384 0.02498,0 0.0849,0.04046 0.133199,0.08989 0.05566,0.05696 0.119806,0.06968 0.175149,0.03463 0.104034,-0.06584 0.1191,-1.218668 0.02313,-1.774484 l -0.05908,-0.342313 -0.373882,0.288888 c -0.528289,0.408279 -1.464601,1.407314 -1.762639,1.880706 -0.457306,0.726377 -0.731168,1.585421 -0.90928,2.852566 -0.0309,0.2198 -0.02672,0.233061 0.03023,0.09568 0.03637,-0.08769 0.120753,-0.275583 0.187592,-0.417542 z m 0.1191,-0.71468 c 0.0013,-0.175892 0.24376,-0.575288 0.246488,-0.40605 0.0024,0.15476 -0.140904,0.581488 -0.195413,0.581488 -0.02884,0 -0.05183,-0.07894 -0.05107,-0.175432 z m 0.257627,-0.781391 c 0,-0.08769 0.01413,-0.123608 0.03142,-0.07974 0.0173,0.04386 0.0173,0.11561 0,0.159472 -0.01728,0.04386 -0.03142,0.0081 -0.03142,-0.07972 z m 0.38028,-0.235421 c 0.05793,-0.05931 0.12277,-0.08993 0.144212,-0.06804 0.06133,0.06278 -0.03282,0.175855 -0.146349,0.175855 -0.09511,0 -0.09493,-0.0084 0.0021,-0.107815 z m 0.553765,-0.211169 c 0.04988,-0.146505 0.08706,-0.181872 0.137232,-0.130598 0.07572,0.0775 -0.0052,0.26312 -0.133784,0.307033 -0.05367,0.01834 -0.05452,-0.02625 -0.0034,-0.176443 z m -0.819335,-0.02193 c 0,-0.108196 0.23594,-0.331743 0.290928,-0.27554 0.06636,0.06795 -0.09287,0.361342 -0.196125,0.361342 -0.05214,0 -0.0948,-0.03862 -0.0948,-0.0858 z m 1.121521,-0.536729 c 0,-0.07384 0.255731,-0.221273 0.301948,-0.174 0.02233,0.02283 -0.01378,0.08222 -0.08028,0.131974 -0.133318,0.09978 -0.221602,0.116525 -0.221668,0.04201 z m -0.747641,-0.142931 c 0.06453,-0.123441 0.249214,-0.180147 0.249214,-0.07653 0,0.08033 -0.141145,0.204097 -0.232741,0.204097 -0.06388,0 -0.06772,-0.02961 -0.01656,-0.127571 z m 1.260385,-0.01191 c 0.03851,-0.118253 0.172659,-0.137882 0.172659,-0.02524 0,0.05553 -0.0444,0.100989 -0.09864,0.100989 -0.05426,0 -0.08756,-0.03408 -0.07401,-0.07575 z m 0.509093,-0.14111 c -0.02281,-0.06084 -0.01069,-0.142211 0.02706,-0.180827 0.04985,-0.05101 0.07985,-0.03999 0.109998,0.04047 0.02281,0.06084 0.01069,0.14221 -0.02706,0.180826 -0.04985,0.05101 -0.07985,0.03999 -0.109998,-0.04046 z m -0.4611,-0.171178 c 0,-0.155437 0.145645,-0.133495 0.175861,0.02655 0.01188,0.06294 -0.01987,0.106344 -0.07789,0.106344 -0.05779,0 -0.09802,-0.05452 -0.09799,-0.132889 z m -0.842444,-0.248351 c 0.06129,-0.06934 0.13711,-0.109828 0.168394,-0.09002 0.07768,0.04913 -0.06477,0.216053 -0.184393,0.216053 -0.0804,0 -0.07787,-0.01992 0.01603,-0.126084 z m 1.25612,0.01797 c -0.07017,-0.07182 -0.04273,-0.147089 0.05362,-0.147089 0.0514,0 0.09345,0.027 0.09345,0.06004 0,0.08044 -0.0973,0.138046 -0.147074,0.08707 z m 0.11398,-0.34168 c -0.0592,-0.09809 0.02188,-0.161361 0.101862,-0.07949 0.04474,0.04581 0.04581,0.08151 0.0033,0.108402 -0.03489,0.02207 -0.0822,0.009 -0.105106,-0.02893 z m -0.589912,-0.124359 c -0.201457,-0.206246 -0.142558,-0.296633 0.06231,-0.09568 0.102812,0.100825 0.18688,0.192313 0.18688,0.203301 0,0.06336 -0.142213,0.0021 -0.249184,-0.107611 z m 0.294481,-0.03869 c -0.0602,-0.06164 0.02357,-0.216475 0.117134,-0.216475 0.04773,0 0.0868,0.02519 0.0868,0.05599 0,0.07957 -0.159983,0.205489 -0.20393,0.160483 z m -0.260702,-0.275829 c -0.04607,-0.07633 0.07113,-0.151931 0.154173,-0.09943 0.06968,0.04408 0.02394,0.158851 -0.06332,0.158851 -0.03023,0 -0.07108,-0.02673 -0.0908,-0.05936 z m 0.306332,-0.200014 c -0.0226,-0.03742 -0.02611,-0.08336 -0.0078,-0.102052 0.04462,-0.04568 0.166137,0.03482 0.166137,0.11009 0,0.08151 -0.107569,0.07608 -0.158314,-0.0081 z m 1.499063,1.096103 c 0.252531,-0.136232 0.548791,-0.279665 0.658289,-0.318736 l 0.199085,-0.07106 -0.273505,-0.306401 c -0.150384,-0.168518 -0.43657,-0.498721 -0.635775,-0.733761 -0.206907,-0.244009 -0.412512,-0.427347 -0.479348,-0.427347 -0.198377,0 -0.300527,0.221779 -0.24329,0.527801 0.02775,0.148228 0.07005,0.563756 0.09399,0.923354 0.03349,0.503039 0.06405,0.653817 0.132492,0.653817 0.04892,0 0.295548,-0.111445 0.548066,-0.247668 z m -0.437991,-0.02342 c -0.01535,-0.04386 -0.03547,-0.381124 -0.04478,-0.749496 -0.01585,-0.628195 -0.0091,-0.670901 0.107881,-0.688083 0.09702,-0.01431 0.196715,0.101706 0.4483,0.521285 0.349112,0.582268 0.351247,0.55454 -0.05912,0.767376 -0.12846,0.06665 -0.23369,0.145367 -0.23369,0.174921 0,0.08486 -0.187709,0.06255 -0.218591,-0.02604 z"
       id="path2396"
       sodipodi:nodetypes="ccccccsscsssssssccsscccsccccccscccssssccccccsscscsscscscccscsssccscccsscssccscssccccscccssccccccccccccsssssccsccccccssscccssssccscssccscssscsccccssssssccssscccsscccsscsccccscsccscsscssccssscccsccssssscssssssssccsccssscsssscssscssccssccscccsscscscsscsccsssccscscccsscsssccccsssssccsssssssssssscscsccsssssssssssccssscssscccccscscsccccssccccsscccsssssscsscccccsccssscssscsscccssccsscssscscscssscccsscssssscssscssssssssssscsssccsccsccccscsssssscccsssscc" />
    <ellipse
       style="opacity:1;fill:none;fill-opacity:1;stroke:#000000;stroke-width:0.109;stroke-miterlimit:4;stroke-dasharray:none;stroke-opacity:1"
       id="path2399"
       ry="9.7303362"
       rx="9.296092"
       cy="23.554565"
       cx="41.844292" />
    <path
       style="opacity:1;fill:#ededed;fill-opacity:1;stroke:#000000;stroke-width:0.106066;stroke-opacity:1"
       d="m 10.356316,23.262745 v -9.364256 l 3.390982,0.06322 c 3.668717,0.0684 4.60292,0.140742 5.534964,0.428621 1.221499,0.377283 2.336192,1.376669 2.776259,2.489074 0.181747,0.459421 0.216251,0.71829 0.216251,1.622403 0,0.901091 -0.03476,1.163585 -0.214103,1.616662 -0.418288,1.056744 -1.088598,1.694455 -2.173903,2.068179 -0.354954,0.122227 -0.596966,0.25915 -0.596966,0.337743 0,0.07652 0.298463,0.255296 0.708808,0.424565 0.873471,0.36031 1.446056,0.747332 1.946094,1.315406 0.739774,0.840428 1.131599,1.938821 1.13115,3.170929 -9.26e-4,2.481957 -1.335292,4.17548 -3.804716,4.828704 -0.602233,0.159306 -1.179033,0.206848 -3.30216,0.272175 -1.414858,0.04353 -3.256512,0.08178 -4.092564,0.08499 l -1.520096,0.0058 z m 7.865073,7.491975 c 1.129095,-0.214129 2.054568,-0.949265 2.419374,-1.921795 0.185577,-0.494727 0.204991,-0.694373 0.176838,-1.818585 -0.02984,-1.191656 -0.04706,-1.290737 -0.305426,-1.757548 -0.364269,-0.658152 -0.92863,-1.161913 -1.604147,-1.431899 -0.533697,-0.213304 -0.659131,-0.222413 -3.476932,-0.252505 l -2.92326,-0.03122 v 3.654245 3.654244 h 2.606473 c 1.433561,0 2.831747,-0.04272 3.10708,-0.09494 z M 18.5165,21.52456 c 0.243528,-0.112489 0.592897,-0.319027 0.776377,-0.458974 0.88917,-0.678203 1.201148,-2.198076 0.739791,-3.604066 -0.263379,-0.802654 -1.159158,-1.458732 -2.282575,-1.671784 -0.273368,-0.05184 -1.564707,-0.09426 -2.869645,-0.09426 h -2.372612 v 3.046444 3.046444 l 2.782944,-0.02964 c 2.630721,-0.02802 2.807163,-0.04083 3.22572,-0.234164 z"
       id="path2421" />
    <path
       style="opacity:1;fill:#ededed;fill-opacity:1;stroke:#000000;stroke-width:0.106066;stroke-opacity:1"
       d="m 27.849107,23.272567 v -9.354434 h 1.075759 1.07576 V 23.272567 32.627 h -1.07576 -1.075759 z"
       id="path2423" />
    <path
       style="opacity:1;fill:#ededed;fill-opacity:1;stroke:#000000;stroke-width:0.106066;stroke-opacity:1"
       d="m 57.011973,32.777194 c -0.43732,-0.08096 -1.405504,-0.322795 -2.151521,-0.537416 l -1.356391,-0.390218 -0.02646,-1.05058 c -0.01455,-0.577818 -0.003,-1.050579 0.02572,-1.050579 0.02869,0 0.335261,0.142491 0.68126,0.316648 1.610341,0.810554 3.167909,1.180061 4.974272,1.180061 1.956366,0 3.01512,-0.359951 3.876373,-1.317874 0.574419,-0.638889 0.745832,-1.223547 0.695579,-2.372495 -0.08287,-1.894847 -0.947621,-2.704521 -3.562268,-3.335402 -2.878381,-0.694516 -3.418226,-0.852018 -4.173738,-1.217707 -1.292826,-0.625763 -2.179029,-1.659273 -2.446615,-2.853296 -0.16808,-0.75001 -0.12305,-2.156292 0.09127,-2.850167 0.385122,-1.246885 1.257239,-2.249358 2.477248,-2.847527 1.069094,-0.524176 1.932382,-0.698322 3.461764,-0.698322 1.640681,0 2.542555,0.110484 4.058277,0.497159 l 1.186174,0.302605 -0.02569,0.927638 c -0.01413,0.510202 -0.03798,0.939923 -0.05299,0.954937 -0.015,0.01501 -0.36126,-0.102375 -0.769432,-0.260864 -2.514775,-0.97646 -5.075613,-1.09786 -6.751095,-0.320045 -0.559843,0.259897 -1.228783,0.904192 -1.479733,1.425214 -0.217601,0.451782 -0.299341,1.909173 -0.136091,2.426364 0.221888,0.702941 0.513083,1.028509 1.237332,1.383385 0.67051,0.328545 1.169805,0.471712 3.955301,1.13414 2.933907,0.697721 4.444037,1.86144 4.97082,3.830546 0.16378,0.612203 0.162158,2.480172 -0.0027,3.099275 -0.45598,1.712483 -1.862495,2.963339 -3.93914,3.503201 -1.030634,0.267932 -3.666935,0.334321 -4.817534,0.121319 z"
       id="path2425" />
    <rect
       style="opacity:1;fill:none;fill-opacity:1;stroke:none;stroke-width:0.109;stroke-miterlimit:4;stroke-dasharray:none;stroke-opacity:1"
       id="rect2460"
       width="62.177082"
       height="21.166666"
       x="5.2916665"
       y="11.906251" />
  </g>
</svg>
